
<svg
   width="124.14665mm"
   class="logo-navbar"
   height="108.39276mm"
   viewBox="0 0 124.14665 108.39276"
   version="1.1"
   id="svg1"
   xmlns="http://www.w3.org/2000/svg"
   xmlns:svg="http://www.w3.org/2000/svg">
  <defs
     id="defs1" />
  <g
     id="layer1"
     transform="translate(-42.926671,-94.303624)">
    <path
       id="path13"
       style="fill:#00b8f8;stroke-width:0.264583"
       d="m 114.53934,94.407273 c -0.93313,5.683987 -11.80864,7.550007 -18.719122,49.643617 6.901502,-42.03893 -2.797577,-47.338817 -1.86444,-53.022808 0.933138,-5.683994 6.297382,-9.535322 11.981382,-8.602185 5.68399,0.933138 9.53532,6.297382 8.60218,11.981376 z m 9.72114,7.731977 c 4.45591,3.65012 0.63418,14.00159 33.63307,41.03305 -32.95603,-26.99635 -42.39541,-21.24664 -46.85132,-24.89675 -4.45591,-3.65012 -5.10914,-10.22136 -1.45902,-14.67727 3.65012,-4.455918 10.22135,-5.109147 14.67727,-1.45903 z m 11.55666,-4.55276 c 5.38904,-2.033875 12.44282,6.45158 52.35219,-8.61057 -39.85753,15.04258 -39.59783,26.09218 -44.98688,28.12606 -5.38905,2.03387 -11.40652,-0.68604 -13.4404,-6.07509 -2.03387,-5.38905 0.68603,-11.406524 6.07509,-13.4404 z m 1.83552,-12.284739 c 0.93313,-5.683991 11.80864,-7.550009 18.71912,-49.643616 -6.9015,42.038929 2.79758,47.338816 1.86444,53.022807 -0.93314,5.683994 -6.29738,9.535322 -11.98138,8.602185 -5.68399,-0.933138 -9.53532,-6.297382 -8.60218,-11.981376 z m -9.72114,-7.731978 c -4.45591,-3.650117 -0.63418,-14.001589 -33.633068,-41.033046 32.956028,26.996344 42.395408,21.246636 46.851318,24.896752 4.45591,3.650118 5.10914,10.221356 1.45902,14.677269 -3.65012,4.455914 -10.22135,5.109143 -14.67727,1.459025 z m -11.55666,4.552761 c -5.38904,2.033875 -12.44282,-6.45158 -52.35219,8.61057 39.85753,-15.042585 39.59783,-26.092181 44.98688,-28.126055 5.38905,-2.033876 11.40652,0.686033 13.4404,6.075085 2.03387,5.389051 -0.68603,11.406524 -6.07509,13.4404 z"
       transform="translate(-21.096,58.645488)" />
  </g>
</svg>
